# xmcd
#
# Track frame offsets:
# 150
# 14032
# 27420
# 41462
# 55590
# 69327
# 83037
# 95692
# 107312
# 120577
# 132640
# 144717
# 156642
# 168970
# 181797
# 195160
#
# Disc length: 2758 seconds
#
# Revision: 0
# Processed by: cddbd v1.4PL0 Copyright (c) Steve Scherf et al.
# Submitted via: Axialis_AX_CDPlayer 2.6
#
DISCID=d20ac410
DTITLE=Johnny Moore's Three Blazers - Los Angeles Blues (Complete RCA Record
DTITLE=ings \n1949-50) - Disc 1
DYEAR=1900
DGENRE=
TTITLE0=How Blue Can You Get?
TTITLE1=How Could I Know?
TTITLE2=Rosamay
TTITLE3=What Does It Matter?
TTITLE4=Blues for What I've Never Had
TTITLE5=I Was Wrong
TTITLE6=Fire, Fire, Fire
TTITLE7=This Is One Time, Baby (You Ain't Gonna Two Time Me)
TTITLE8=A New Shade of Blues
TTITLE9=What I Meander in the Meadow
TTITLE10=Bop-a-Bye Baby
TTITLE11=Citation
TTITLE12=Forever
TTITLE13=What Am I Gonna Do This Christmas?
TTITLE14=Walkin' Blues
TTITLE15=You Can Go Feed Yourself
EXTD=
EXTT0=
EXTT1=
EXTT2=
EXTT3=
EXTT4=
EXTT5=
EXTT6=
EXTT7=
EXTT8=
EXTT9=
EXTT10=
EXTT11=
EXTT12=
EXTT13=
EXTT14=
EXTT15=
PLAYORDER=
